control3min_grf.mot
version=1
nRows=27
nColumns 19
inDegrees=yes
endheader
time	1_ground_force_vx	1_ground_force_vy	1_ground_force_vz	1_ground_force_px	1_ground_force_py	1_ground_force_pz	1_ground_torque_x	1_ground_torque_y	1_ground_torque_z	2_ground_force_vx	2_ground_force_vy	2_ground_force_vz	2_ground_force_px	2_ground_force_py	2_ground_force_pz	2_ground_torque_x	2_ground_torque_y	2_ground_torque_z
            2.502500	           -0.228913	           -4.145368	           -0.200633	           -0.233013	            0.005581	           -0.255695	           -0.403059	           -0.137874	           -0.234794	            0.007057	           -1.844831	            0.931991	           -0.232311	            0.006130	           -0.833667	           -0.356436	           -0.133694	            0.018530
            2.503000	            0.000448	           -4.325786	           -0.156119	           -0.233013	            0.005581	           -0.255695	           -0.405000	           -0.211473	           -0.281719	            0.007037	           -1.844663	            0.885063	           -0.232311	            0.006130	           -0.833667	           -0.338000	           -0.039032	            0.000009
            2.503500	           -0.136823	           -3.245005	            0.032284	           -0.233013	            0.005581	           -0.255695	           -0.450939	           -0.193293	           -0.231035	           -0.132245	           -2.212965	            0.743025	           -0.232311	            0.006130	           -0.833667	           -0.206459	           -0.057261	           -0.056665
            2.504000	            0.092035	           -3.784972	           -0.154028	           -0.233013	            0.005581	           -0.255695	           -0.536600	            0.028550	           -0.201280	           -0.275495	           -1.476545	            0.651857	           -0.232311	            0.006130	           -0.833667	           -0.319146	           -0.057869	           -0.000067
            2.504500	           -0.275098	           -4.144787	           -0.338087	           -0.233013	            0.005581	           -0.255695	           -0.397395	            0.176618	           -0.291809	            0.285354	           -1.106051	            0.606003	           -0.232311	            0.006130	           -0.833667	           -0.281480	           -0.095208	           -0.094468
            2.505000	           -0.091190	           -3.965469	           -0.108489	           -0.233013	            0.005581	           -0.255695	           -0.482169	            0.176372	           -0.208594	            0.005810	           -1.477203	            1.121018	           -0.232311	            0.006130	           -0.833667	           -0.393904	           -0.162187	            0.018445
            2.505500	           -0.045853	           -3.063542	           -0.242306	           -0.233013	            0.005581	           -0.255695	           -0.458177	            0.056390	           -0.244842	            0.194498	           -1.844489	            1.025768	           -0.232311	            0.006130	           -0.833667	           -0.300156	           -0.114518	           -0.000277
            2.506000	           -0.366784	           -4.144805	           -0.337859	           -0.233013	            0.005581	           -0.255695	           -0.397211	           -0.119454	           -0.240594	           -0.040478	           -1.660684	            0.885740	           -0.232311	            0.006130	           -0.833667	           -0.281353	           -0.123768	           -0.038019
            2.506500	           -0.228314	           -3.065151	            0.124996	           -0.233013	            0.005581	           -0.255695	           -0.473743	           -0.211824	           -0.234974	            0.004296	           -1.107400	            0.699979	           -0.232311	            0.006130	           -0.833667	           -0.375511	           -0.058006	           -0.018893
            2.507000	           -0.274187	           -4.146360	            0.028760	           -0.233013	            0.005581	           -0.255695	           -0.487981	           -0.100849	           -0.255177	           -0.133574	           -1.844669	            0.744339	           -0.232311	            0.006130	           -0.833667	           -0.319258	           -0.020260	            0.056619
            2.507500	           -0.091223	           -3.785204	           -0.107716	           -0.233013	            0.005581	           -0.255695	           -0.501129	            0.056365	           -0.246664	           -0.085978	           -2.029317	            0.931374	           -0.232311	            0.006130	           -0.833667	           -0.356751	           -0.048552	           -0.000017
            2.508000	           -0.045883	           -4.144743	           -0.338656	           -0.233013	            0.005581	           -0.255695	           -0.453497	            0.157904	           -0.206784	            0.144263	           -0.923414	            0.888289	           -0.232311	            0.006130	           -0.833667	           -0.319026	           -0.095546	           -0.037902
            2.508500	           -0.045299	           -3.605126	           -0.061201	           -0.233013	            0.005581	           -0.255695	           -0.484253	            0.148503	           -0.169171	            0.284793	           -0.922739	            0.841301	           -0.232311	            0.006130	           -0.833667	           -0.243765	           -0.132951	           -0.075769
            2.509000	           -0.091417	           -3.965076	           -0.200201	           -0.233013	            0.005581	           -0.255695	           -0.459683	           -0.026579	           -0.303511	            0.195122	           -2.028302	            0.931255	           -0.232311	            0.006130	           -0.833667	           -0.299993	           -0.170898	           -0.094730
            2.509500	           -0.000106	           -3.784203	           -0.337224	           -0.233013	            0.005581	           -0.255695	           -0.435183	           -0.109647	           -0.318823	            0.148854	           -2.211950	            0.742905	           -0.232311	            0.006130	           -0.833667	           -0.262602	           -0.114248	           -0.037993
            2.510000	           -0.228638	           -3.785427	           -0.061519	           -0.233013	            0.005581	           -0.255695	           -0.484229	           -0.221076	           -0.234962	            0.100010	           -1.659675	            0.744896	           -0.232311	            0.006130	           -0.833667	           -0.356777	           -0.039167	            0.018867
            2.510500	            0.137588	           -4.685505	           -0.341430	           -0.233013	            0.005581	           -0.255695	           -0.397050	           -0.081846	           -0.312902	            0.100716	           -1.844158	            0.838095	           -0.232311	            0.006130	           -0.833667	           -0.300497	           -0.019991	            0.000060
            2.511000	           -0.137407	           -3.784623	           -0.245170	           -0.233013	            0.005581	           -0.255695	           -0.420140	            0.093248	           -0.229864	            0.192422	           -1.291374	            0.840027	           -0.232311	            0.006130	           -0.833667	           -0.356665	           -0.076776	           -0.037818
            2.511500	            0.046144	           -4.145315	           -0.201316	           -0.233013	            0.005581	           -0.255695	           -0.571996	            0.213388	           -0.202342	            0.053263	           -1.660681	            0.979557	           -0.232311	            0.006130	           -0.833667	           -0.281507	           -0.076639	           -0.000150
            2.512000	           -0.183313	           -4.685567	           -0.340633	           -0.233013	            0.005581	           -0.255695	           -0.528242	            0.102366	           -0.212681	            0.240683	           -1.660171	            1.026405	           -0.232311	            0.006130	           -0.833667	           -0.394031	           -0.133628	           -0.038005
            2.512500	           -0.045167	           -4.326188	           -0.064293	           -0.233013	            0.005581	           -0.255695	           -0.521623	           -0.054295	           -0.301508	           -0.134157	           -1.661190	            0.932708	           -0.232311	            0.006130	           -0.833667	           -0.224844	           -0.161510	           -0.000478
            2.513000	            0.000203	           -3.604527	           -0.198883	           -0.233013	            0.005581	           -0.255695	           -0.478280	           -0.156593	           -0.149741	            0.239916	           -1.475186	            0.792422	           -0.232311	            0.006130	           -0.833667	           -0.224955	           -0.133084	           -0.019227
            2.513500	           -0.091352	           -4.325607	           -0.201747	           -0.233013	            0.005581	           -0.255695	           -0.534046	           -0.175294	           -0.115970	            0.008304	           -2.212458	            0.742965	           -0.232311	            0.006130	           -0.833667	           -0.319216	           -0.029780	            0.075435
            2.514000	           -0.045347	           -3.965460	           -0.108603	           -0.233013	            0.005581	           -0.255695	           -0.463540	           -0.035879	           -0.282788	           -0.136212	           -1.108243	            0.793895	           -0.232311	            0.006130	           -0.833667	           -0.413150	           -0.039236	           -0.018809
            2.514500	           -0.183478	           -3.784238	           -0.336769	           -0.233013	            0.005581	           -0.255695	           -0.435199	            0.130517	           -0.306814	           -0.092062	           -0.371146	            0.702647	           -0.232311	            0.006130	           -0.833667	           -0.281703	           -0.029174	           -0.056532
            2.515000	           -0.045673	           -3.424270	           -0.197996	           -0.233013	            0.005581	           -0.255695	           -0.441249	            0.204451	           -0.281832	            0.146298	           -1.476194	            0.980174	           -0.232311	            0.006130	           -0.833667	           -0.300156	           -0.114518	           -0.000277
            2.515500	           -0.091384	           -4.145342	           -0.200974	           -0.233013	            0.005581	           -0.255695	           -0.515765	            0.093333	           -0.246457	            0.566577	           -1.106040	            0.887452	           -0.232311	            0.006130	           -0.833667	           -0.318849	           -0.133693	            0.056214
